ISO-10303-21;
HEADER;
/* Generated by software containing ST-Developer
 * from STEP Tools, Inc. (www.steptools.com) 
 */

FILE_DESCRIPTION(
/* description */ (''),
/* implementation_level */ '2;1');

FILE_NAME(
/* name */ 'practice washer.step',
/* time_stamp */ '2026-07-24T17:40:30+02:00',
/* author */ (''),
/* organization */ (''),
/* preprocessor_version */ 'ST-DEVELOPER v20.1',
/* originating_system */ 'Autodesk Translation Framework v15.8.0.0',
/* authorisation */ '');

FILE_SCHEMA (('AUTOMOTIVE_DESIGN { 1 0 10303 214 3 1 1 }'));
ENDSEC;

DATA;
#10=MECHANICAL_DESIGN_GEOMETRIC_PRESENTATION_REPRESENTATION('',(#13),#650);
#11=SHAPE_REPRESENTATION_RELATIONSHIP('SRR','None',#657,#12);
#12=ADVANCED_BREP_SHAPE_REPRESENTATION('',(#14),#649);
#13=STYLED_ITEM('',(#666),#14);
#14=MANIFOLD_SOLID_BREP('Body1',#350);
#15=FACE_BOUND('',#41,.T.);
#16=FACE_BOUND('',#58,.T.);
#17=PLANE('',#370);
#18=PLANE('',#416);
#19=FACE_OUTER_BOUND('',#38,.T.);
#20=FACE_OUTER_BOUND('',#39,.T.);
#21=FACE_OUTER_BOUND('',#40,.T.);
#22=FACE_OUTER_BOUND('',#42,.T.);
#23=FACE_OUTER_BOUND('',#43,.T.);
#24=FACE_OUTER_BOUND('',#44,.T.);
#25=FACE_OUTER_BOUND('',#45,.T.);
#26=FACE_OUTER_BOUND('',#46,.T.);
#27=FACE_OUTER_BOUND('',#47,.T.);
#28=FACE_OUTER_BOUND('',#48,.T.);
#29=FACE_OUTER_BOUND('',#49,.T.);
#30=FACE_OUTER_BOUND('',#50,.T.);
#31=FACE_OUTER_BOUND('',#51,.T.);
#32=FACE_OUTER_BOUND('',#52,.T.);
#33=FACE_OUTER_BOUND('',#53,.T.);
#34=FACE_OUTER_BOUND('',#54,.T.);
#35=FACE_OUTER_BOUND('',#55,.T.);
#36=FACE_OUTER_BOUND('',#56,.T.);
#37=FACE_OUTER_BOUND('',#57,.T.);
#38=EDGE_LOOP('',(#212,#213,#214,#215));
#39=EDGE_LOOP('',(#216,#217,#218,#219));
#40=EDGE_LOOP('',(#220));
#41=EDGE_LOOP('',(#221,#222,#223,#224,#225,#226,#227,#228,#229,#230,#231,
#232,#233,#234,#235,#236));
#42=EDGE_LOOP('',(#237,#238,#239,#240));
#43=EDGE_LOOP('',(#241,#242,#243,#244));
#44=EDGE_LOOP('',(#245,#246,#247,#248));
#45=EDGE_LOOP('',(#249,#250,#251,#252));
#46=EDGE_LOOP('',(#253,#254,#255,#256));
#47=EDGE_LOOP('',(#257,#258,#259,#260));
#48=EDGE_LOOP('',(#261,#262,#263,#264));
#49=EDGE_LOOP('',(#265,#266,#267,#268));
#50=EDGE_LOOP('',(#269,#270,#271,#272));
#51=EDGE_LOOP('',(#273,#274,#275,#276));
#52=EDGE_LOOP('',(#277,#278,#279,#280));
#53=EDGE_LOOP('',(#281,#282,#283,#284));
#54=EDGE_LOOP('',(#285,#286,#287,#288));
#55=EDGE_LOOP('',(#289,#290,#291,#292));
#56=EDGE_LOOP('',(#293,#294,#295,#296));
#57=EDGE_LOOP('',(#297));
#58=EDGE_LOOP('',(#298,#299,#300,#301,#302,#303,#304,#305,#306,#307,#308,
#309,#310,#311,#312,#313));
#59=LINE('',#548,#76);
#60=LINE('',#551,#77);
#61=LINE('',#556,#78);
#62=LINE('',#590,#79);
#63=LINE('',#594,#80);
#64=LINE('',#599,#81);
#65=LINE('',#602,#82);
#66=LINE('',#606,#83);
#67=LINE('',#610,#84);
#68=LINE('',#614,#85);
#69=LINE('',#617,#86);
#70=LINE('',#621,#87);
#71=LINE('',#625,#88);
#72=LINE('',#629,#89);
#73=LINE('',#632,#90);
#74=LINE('',#636,#91);
#75=LINE('',#645,#92);
#76=VECTOR('',#423,10.);
#77=VECTOR('',#426,10.);
#78=VECTOR('',#431,10.);
#79=VECTOR('',#468,10.);
#80=VECTOR('',#473,10.);
#81=VECTOR('',#480,10.);
#82=VECTOR('',#483,10.);
#83=VECTOR('',#488,10.);
#84=VECTOR('',#493,10.);
#85=VECTOR('',#498,10.);
#86=VECTOR('',#501,10.);
#87=VECTOR('',#506,10.);
#88=VECTOR('',#511,10.);
#89=VECTOR('',#516,10.);
#90=VECTOR('',#519,10.);
#91=VECTOR('',#524,10.);
#92=VECTOR('',#539,20.);
#93=CIRCLE('',#365,2.);
#94=CIRCLE('',#366,2.);
#95=CIRCLE('',#368,2.5);
#96=CIRCLE('',#369,2.5);
#97=CIRCLE('',#371,20.);
#98=CIRCLE('',#372,10.);
#99=CIRCLE('',#373,2.);
#100=CIRCLE('',#374,2.5);
#101=CIRCLE('',#375,2.);
#102=CIRCLE('',#376,10.);
#103=CIRCLE('',#377,2.);
#104=CIRCLE('',#378,2.5);
#105=CIRCLE('',#379,2.);
#106=CIRCLE('',#380,10.);
#107=CIRCLE('',#381,2.);
#108=CIRCLE('',#382,2.5);
#109=CIRCLE('',#383,2.);
#110=CIRCLE('',#384,10.);
#111=CIRCLE('',#385,2.);
#112=CIRCLE('',#387,2.);
#113=CIRCLE('',#389,10.);
#114=CIRCLE('',#391,2.);
#115=CIRCLE('',#393,2.5);
#116=CIRCLE('',#395,2.);
#117=CIRCLE('',#397,10.);
#118=CIRCLE('',#399,2.);
#119=CIRCLE('',#401,2.5);
#120=CIRCLE('',#403,2.);
#121=CIRCLE('',#405,2.);
#122=CIRCLE('',#407,2.5);
#123=CIRCLE('',#409,2.);
#124=CIRCLE('',#411,10.);
#125=CIRCLE('',#413,10.);
#126=CIRCLE('',#415,20.);
#127=VERTEX_POINT('',#544);
#128=VERTEX_POINT('',#545);
#129=VERTEX_POINT('',#547);
#130=VERTEX_POINT('',#549);
#131=VERTEX_POINT('',#553);
#132=VERTEX_POINT('',#555);
#133=VERTEX_POINT('',#559);
#134=VERTEX_POINT('',#561);
#135=VERTEX_POINT('',#563);
#136=VERTEX_POINT('',#565);
#137=VERTEX_POINT('',#567);
#138=VERTEX_POINT('',#569);
#139=VERTEX_POINT('',#571);
#140=VERTEX_POINT('',#573);
#141=VERTEX_POINT('',#575);
#142=VERTEX_POINT('',#577);
#143=VERTEX_POINT('',#579);
#144=VERTEX_POINT('',#581);
#145=VERTEX_POINT('',#583);
#146=VERTEX_POINT('',#585);
#147=VERTEX_POINT('',#589);
#148=VERTEX_POINT('',#593);
#149=VERTEX_POINT('',#597);
#150=VERTEX_POINT('',#601);
#151=VERTEX_POINT('',#605);
#152=VERTEX_POINT('',#609);
#153=VERTEX_POINT('',#613);
#154=VERTEX_POINT('',#615);
#155=VERTEX_POINT('',#619);
#156=VERTEX_POINT('',#623);
#157=VERTEX_POINT('',#627);
#158=VERTEX_POINT('',#631);
#159=VERTEX_POINT('',#635);
#160=VERTEX_POINT('',#643);
#161=EDGE_CURVE('',#127,#128,#93,.T.);
#162=EDGE_CURVE('',#128,#129,#59,.T.);
#163=EDGE_CURVE('',#129,#130,#94,.T.);
#164=EDGE_CURVE('',#130,#127,#60,.T.);
#165=EDGE_CURVE('',#131,#130,#95,.T.);
#166=EDGE_CURVE('',#132,#131,#61,.T.);
#167=EDGE_CURVE('',#127,#132,#96,.T.);
#168=EDGE_CURVE('',#133,#133,#97,.T.);
#169=EDGE_CURVE('',#134,#129,#98,.T.);
#170=EDGE_CURVE('',#135,#134,#99,.T.);
#171=EDGE_CURVE('',#135,#136,#100,.T.);
#172=EDGE_CURVE('',#137,#136,#101,.T.);
#173=EDGE_CURVE('',#138,#137,#102,.T.);
#174=EDGE_CURVE('',#139,#138,#103,.T.);
#175=EDGE_CURVE('',#139,#140,#104,.T.);
#176=EDGE_CURVE('',#141,#140,#105,.T.);
#177=EDGE_CURVE('',#142,#141,#106,.T.);
#178=EDGE_CURVE('',#143,#142,#107,.T.);
#179=EDGE_CURVE('',#143,#144,#108,.T.);
#180=EDGE_CURVE('',#145,#144,#109,.T.);
#181=EDGE_CURVE('',#146,#145,#110,.T.);
#182=EDGE_CURVE('',#131,#146,#111,.T.);
#183=EDGE_CURVE('',#146,#147,#62,.T.);
#184=EDGE_CURVE('',#147,#132,#112,.T.);
#185=EDGE_CURVE('',#148,#145,#63,.T.);
#186=EDGE_CURVE('',#147,#148,#113,.T.);
#187=EDGE_CURVE('',#149,#148,#114,.T.);
#188=EDGE_CURVE('',#144,#149,#64,.T.);
#189=EDGE_CURVE('',#150,#143,#65,.T.);
#190=EDGE_CURVE('',#149,#150,#115,.T.);
#191=EDGE_CURVE('',#142,#151,#66,.T.);
#192=EDGE_CURVE('',#151,#150,#116,.T.);
#193=EDGE_CURVE('',#152,#141,#67,.T.);
#194=EDGE_CURVE('',#151,#152,#117,.T.);
#195=EDGE_CURVE('',#134,#153,#68,.T.);
#196=EDGE_CURVE('',#153,#154,#118,.T.);
#197=EDGE_CURVE('',#154,#135,#69,.T.);
#198=EDGE_CURVE('',#155,#154,#119,.T.);
#199=EDGE_CURVE('',#136,#155,#70,.T.);
#200=EDGE_CURVE('',#155,#156,#120,.T.);
#201=EDGE_CURVE('',#156,#137,#71,.T.);
#202=EDGE_CURVE('',#157,#152,#121,.T.);
#203=EDGE_CURVE('',#140,#157,#72,.T.);
#204=EDGE_CURVE('',#158,#139,#73,.T.);
#205=EDGE_CURVE('',#157,#158,#122,.T.);
#206=EDGE_CURVE('',#138,#159,#74,.T.);
#207=EDGE_CURVE('',#159,#158,#123,.T.);
#208=EDGE_CURVE('',#153,#128,#124,.T.);
#209=EDGE_CURVE('',#159,#156,#125,.T.);
#210=EDGE_CURVE('',#160,#160,#126,.T.);
#211=EDGE_CURVE('',#160,#133,#75,.T.);
#212=ORIENTED_EDGE('',*,*,#161,.T.);
#213=ORIENTED_EDGE('',*,*,#162,.T.);
#214=ORIENTED_EDGE('',*,*,#163,.T.);
#215=ORIENTED_EDGE('',*,*,#164,.T.);
#216=ORIENTED_EDGE('',*,*,#164,.F.);
#217=ORIENTED_EDGE('',*,*,#165,.F.);
#218=ORIENTED_EDGE('',*,*,#166,.F.);
#219=ORIENTED_EDGE('',*,*,#167,.F.);
#220=ORIENTED_EDGE('',*,*,#168,.F.);
#221=ORIENTED_EDGE('',*,*,#163,.F.);
#222=ORIENTED_EDGE('',*,*,#169,.F.);
#223=ORIENTED_EDGE('',*,*,#170,.F.);
#224=ORIENTED_EDGE('',*,*,#171,.T.);
#225=ORIENTED_EDGE('',*,*,#172,.F.);
#226=ORIENTED_EDGE('',*,*,#173,.F.);
#227=ORIENTED_EDGE('',*,*,#174,.F.);
#228=ORIENTED_EDGE('',*,*,#175,.T.);
#229=ORIENTED_EDGE('',*,*,#176,.F.);
#230=ORIENTED_EDGE('',*,*,#177,.F.);
#231=ORIENTED_EDGE('',*,*,#178,.F.);
#232=ORIENTED_EDGE('',*,*,#179,.T.);
#233=ORIENTED_EDGE('',*,*,#180,.F.);
#234=ORIENTED_EDGE('',*,*,#181,.F.);
#235=ORIENTED_EDGE('',*,*,#182,.F.);
#236=ORIENTED_EDGE('',*,*,#165,.T.);
#237=ORIENTED_EDGE('',*,*,#182,.T.);
#238=ORIENTED_EDGE('',*,*,#183,.T.);
#239=ORIENTED_EDGE('',*,*,#184,.T.);
#240=ORIENTED_EDGE('',*,*,#166,.T.);
#241=ORIENTED_EDGE('',*,*,#183,.F.);
#242=ORIENTED_EDGE('',*,*,#181,.T.);
#243=ORIENTED_EDGE('',*,*,#185,.F.);
#244=ORIENTED_EDGE('',*,*,#186,.F.);
#245=ORIENTED_EDGE('',*,*,#187,.T.);
#246=ORIENTED_EDGE('',*,*,#185,.T.);
#247=ORIENTED_EDGE('',*,*,#180,.T.);
#248=ORIENTED_EDGE('',*,*,#188,.T.);
#249=ORIENTED_EDGE('',*,*,#188,.F.);
#250=ORIENTED_EDGE('',*,*,#179,.F.);
#251=ORIENTED_EDGE('',*,*,#189,.F.);
#252=ORIENTED_EDGE('',*,*,#190,.F.);
#253=ORIENTED_EDGE('',*,*,#178,.T.);
#254=ORIENTED_EDGE('',*,*,#191,.T.);
#255=ORIENTED_EDGE('',*,*,#192,.T.);
#256=ORIENTED_EDGE('',*,*,#189,.T.);
#257=ORIENTED_EDGE('',*,*,#191,.F.);
#258=ORIENTED_EDGE('',*,*,#177,.T.);
#259=ORIENTED_EDGE('',*,*,#193,.F.);
#260=ORIENTED_EDGE('',*,*,#194,.F.);
#261=ORIENTED_EDGE('',*,*,#170,.T.);
#262=ORIENTED_EDGE('',*,*,#195,.T.);
#263=ORIENTED_EDGE('',*,*,#196,.T.);
#264=ORIENTED_EDGE('',*,*,#197,.T.);
#265=ORIENTED_EDGE('',*,*,#197,.F.);
#266=ORIENTED_EDGE('',*,*,#198,.F.);
#267=ORIENTED_EDGE('',*,*,#199,.F.);
#268=ORIENTED_EDGE('',*,*,#171,.F.);
#269=ORIENTED_EDGE('',*,*,#200,.T.);
#270=ORIENTED_EDGE('',*,*,#201,.T.);
#271=ORIENTED_EDGE('',*,*,#172,.T.);
#272=ORIENTED_EDGE('',*,*,#199,.T.);
#273=ORIENTED_EDGE('',*,*,#202,.T.);
#274=ORIENTED_EDGE('',*,*,#193,.T.);
#275=ORIENTED_EDGE('',*,*,#176,.T.);
#276=ORIENTED_EDGE('',*,*,#203,.T.);
#277=ORIENTED_EDGE('',*,*,#203,.F.);
#278=ORIENTED_EDGE('',*,*,#175,.F.);
#279=ORIENTED_EDGE('',*,*,#204,.F.);
#280=ORIENTED_EDGE('',*,*,#205,.F.);
#281=ORIENTED_EDGE('',*,*,#174,.T.);
#282=ORIENTED_EDGE('',*,*,#206,.T.);
#283=ORIENTED_EDGE('',*,*,#207,.T.);
#284=ORIENTED_EDGE('',*,*,#204,.T.);
#285=ORIENTED_EDGE('',*,*,#162,.F.);
#286=ORIENTED_EDGE('',*,*,#208,.F.);
#287=ORIENTED_EDGE('',*,*,#195,.F.);
#288=ORIENTED_EDGE('',*,*,#169,.T.);
#289=ORIENTED_EDGE('',*,*,#201,.F.);
#290=ORIENTED_EDGE('',*,*,#209,.F.);
#291=ORIENTED_EDGE('',*,*,#206,.F.);
#292=ORIENTED_EDGE('',*,*,#173,.T.);
#293=ORIENTED_EDGE('',*,*,#210,.F.);
#294=ORIENTED_EDGE('',*,*,#211,.T.);
#295=ORIENTED_EDGE('',*,*,#168,.T.);
#296=ORIENTED_EDGE('',*,*,#211,.F.);
#297=ORIENTED_EDGE('',*,*,#210,.T.);
#298=ORIENTED_EDGE('',*,*,#161,.F.);
#299=ORIENTED_EDGE('',*,*,#167,.T.);
#300=ORIENTED_EDGE('',*,*,#184,.F.);
#301=ORIENTED_EDGE('',*,*,#186,.T.);
#302=ORIENTED_EDGE('',*,*,#187,.F.);
#303=ORIENTED_EDGE('',*,*,#190,.T.);
#304=ORIENTED_EDGE('',*,*,#192,.F.);
#305=ORIENTED_EDGE('',*,*,#194,.T.);
#306=ORIENTED_EDGE('',*,*,#202,.F.);
#307=ORIENTED_EDGE('',*,*,#205,.T.);
#308=ORIENTED_EDGE('',*,*,#207,.F.);
#309=ORIENTED_EDGE('',*,*,#209,.T.);
#310=ORIENTED_EDGE('',*,*,#200,.F.);
#311=ORIENTED_EDGE('',*,*,#198,.T.);
#312=ORIENTED_EDGE('',*,*,#196,.F.);
#313=ORIENTED_EDGE('',*,*,#208,.T.);
#314=CYLINDRICAL_SURFACE('',#364,2.);
#315=CYLINDRICAL_SURFACE('',#367,2.5);
#316=CYLINDRICAL_SURFACE('',#386,2.);
#317=CYLINDRICAL_SURFACE('',#388,10.);
#318=CYLINDRICAL_SURFACE('',#390,2.);
#319=CYLINDRICAL_SURFACE('',#392,2.5);
#320=CYLINDRICAL_SURFACE('',#394,2.);
#321=CYLINDRICAL_SURFACE('',#396,10.);
#322=CYLINDRICAL_SURFACE('',#398,2.);
#323=CYLINDRICAL_SURFACE('',#400,2.5);
#324=CYLINDRICAL_SURFACE('',#402,2.);
#325=CYLINDRICAL_SURFACE('',#404,2.);
#326=CYLINDRICAL_SURFACE('',#406,2.5);
#327=CYLINDRICAL_SURFACE('',#408,2.);
#328=CYLINDRICAL_SURFACE('',#410,10.);
#329=CYLINDRICAL_SURFACE('',#412,10.);
#330=CYLINDRICAL_SURFACE('',#414,20.);
#331=ADVANCED_FACE('',(#19),#314,.T.);
#332=ADVANCED_FACE('',(#20),#315,.F.);
#333=ADVANCED_FACE('',(#21,#15),#17,.F.);
#334=ADVANCED_FACE('',(#22),#316,.T.);
#335=ADVANCED_FACE('',(#23),#317,.F.);
#336=ADVANCED_FACE('',(#24),#318,.T.);
#337=ADVANCED_FACE('',(#25),#319,.F.);
#338=ADVANCED_FACE('',(#26),#320,.T.);
#339=ADVANCED_FACE('',(#27),#321,.F.);
#340=ADVANCED_FACE('',(#28),#322,.T.);
#341=ADVANCED_FACE('',(#29),#323,.F.);
#342=ADVANCED_FACE('',(#30),#324,.T.);
#343=ADVANCED_FACE('',(#31),#325,.T.);
#344=ADVANCED_FACE('',(#32),#326,.F.);
#345=ADVANCED_FACE('',(#33),#327,.T.);
#346=ADVANCED_FACE('',(#34),#328,.F.);
#347=ADVANCED_FACE('',(#35),#329,.F.);
#348=ADVANCED_FACE('',(#36),#330,.T.);
#349=ADVANCED_FACE('',(#37,#16),#18,.T.);
#350=CLOSED_SHELL('',(#331,#332,#333,#334,#335,#336,#337,#338,#339,#340,
#341,#342,#343,#344,#345,#346,#347,#348,#349));
#351=DERIVED_UNIT_ELEMENT(#353,1.);
#352=DERIVED_UNIT_ELEMENT(#652,-3.);
#353=(
MASS_UNIT()
NAMED_UNIT(*)
SI_UNIT(.KILO.,.GRAM.)
);
#354=DERIVED_UNIT((#351,#352));
#355=MEASURE_REPRESENTATION_ITEM('density measure',
POSITIVE_RATIO_MEASURE(7850.),#354);
#356=PROPERTY_DEFINITION_REPRESENTATION(#361,#358);
#357=PROPERTY_DEFINITION_REPRESENTATION(#362,#359);
#358=REPRESENTATION('material name',(#360),#649);
#359=REPRESENTATION('density',(#355),#649);
#360=DESCRIPTIVE_REPRESENTATION_ITEM('Steel','Steel');
#361=PROPERTY_DEFINITION('material property','material name',#659);
#362=PROPERTY_DEFINITION('material property','density of part',#659);
#363=AXIS2_PLACEMENT_3D('',#542,#417,#418);
#364=AXIS2_PLACEMENT_3D('',#543,#419,#420);
#365=AXIS2_PLACEMENT_3D('',#546,#421,#422);
#366=AXIS2_PLACEMENT_3D('',#550,#424,#425);
#367=AXIS2_PLACEMENT_3D('',#552,#427,#428);
#368=AXIS2_PLACEMENT_3D('',#554,#429,#430);
#369=AXIS2_PLACEMENT_3D('',#557,#432,#433);
#370=AXIS2_PLACEMENT_3D('',#558,#434,#435);
#371=AXIS2_PLACEMENT_3D('',#560,#436,#437);
#372=AXIS2_PLACEMENT_3D('',#562,#438,#439);
#373=AXIS2_PLACEMENT_3D('',#564,#440,#441);
#374=AXIS2_PLACEMENT_3D('',#566,#442,#443);
#375=AXIS2_PLACEMENT_3D('',#568,#444,#445);
#376=AXIS2_PLACEMENT_3D('',#570,#446,#447);
#377=AXIS2_PLACEMENT_3D('',#572,#448,#449);
#378=AXIS2_PLACEMENT_3D('',#574,#450,#451);
#379=AXIS2_PLACEMENT_3D('',#576,#452,#453);
#380=AXIS2_PLACEMENT_3D('',#578,#454,#455);
#381=AXIS2_PLACEMENT_3D('',#580,#456,#457);
#382=AXIS2_PLACEMENT_3D('',#582,#458,#459);
#383=AXIS2_PLACEMENT_3D('',#584,#460,#461);
#384=AXIS2_PLACEMENT_3D('',#586,#462,#463);
#385=AXIS2_PLACEMENT_3D('',#587,#464,#465);
#386=AXIS2_PLACEMENT_3D('',#588,#466,#467);
#387=AXIS2_PLACEMENT_3D('',#591,#469,#470);
#388=AXIS2_PLACEMENT_3D('',#592,#471,#472);
#389=AXIS2_PLACEMENT_3D('',#595,#474,#475);
#390=AXIS2_PLACEMENT_3D('',#596,#476,#477);
#391=AXIS2_PLACEMENT_3D('',#598,#478,#479);
#392=AXIS2_PLACEMENT_3D('',#600,#481,#482);
#393=AXIS2_PLACEMENT_3D('',#603,#484,#485);
#394=AXIS2_PLACEMENT_3D('',#604,#486,#487);
#395=AXIS2_PLACEMENT_3D('',#607,#489,#490);
#396=AXIS2_PLACEMENT_3D('',#608,#491,#492);
#397=AXIS2_PLACEMENT_3D('',#611,#494,#495);
#398=AXIS2_PLACEMENT_3D('',#612,#496,#497);
#399=AXIS2_PLACEMENT_3D('',#616,#499,#500);
#400=AXIS2_PLACEMENT_3D('',#618,#502,#503);
#401=AXIS2_PLACEMENT_3D('',#620,#504,#505);
#402=AXIS2_PLACEMENT_3D('',#622,#507,#508);
#403=AXIS2_PLACEMENT_3D('',#624,#509,#510);
#404=AXIS2_PLACEMENT_3D('',#626,#512,#513);
#405=AXIS2_PLACEMENT_3D('',#628,#514,#515);
#406=AXIS2_PLACEMENT_3D('',#630,#517,#518);
#407=AXIS2_PLACEMENT_3D('',#633,#520,#521);
#408=AXIS2_PLACEMENT_3D('',#634,#522,#523);
#409=AXIS2_PLACEMENT_3D('',#637,#525,#526);
#410=AXIS2_PLACEMENT_3D('',#638,#527,#528);
#411=AXIS2_PLACEMENT_3D('',#639,#529,#530);
#412=AXIS2_PLACEMENT_3D('',#640,#531,#532);
#413=AXIS2_PLACEMENT_3D('',#641,#533,#534);
#414=AXIS2_PLACEMENT_3D('',#642,#535,#536);
#415=AXIS2_PLACEMENT_3D('',#644,#537,#538);
#416=AXIS2_PLACEMENT_3D('',#646,#540,#541);
#417=DIRECTION('axis',(0.,0.,1.));
#418=DIRECTION('refdir',(1.,0.,0.));
#419=DIRECTION('center_axis',(0.,0.,1.));
#420=DIRECTION('ref_axis',(-0.481594843981952,-0.87639397889876,0.));
#421=DIRECTION('center_axis',(0.,0.,-1.));
#422=DIRECTION('ref_axis',(-0.481594843981952,-0.87639397889876,0.));
#423=DIRECTION('',(0.,0.,-1.));
#424=DIRECTION('center_axis',(0.,0.,1.));
#425=DIRECTION('ref_axis',(-0.481594843981952,-0.87639397889876,0.));
#426=DIRECTION('',(0.,0.,1.));
#427=DIRECTION('center_axis',(0.,0.,-1.));
#428=DIRECTION('ref_axis',(1.,1.22464679914735E-16,0.));
#429=DIRECTION('center_axis',(0.,0.,1.));
#430=DIRECTION('ref_axis',(-1.,0.,0.));
#431=DIRECTION('',(0.,0.,-1.));
#432=DIRECTION('center_axis',(0.,0.,-1.));
#433=DIRECTION('ref_axis',(-1.,0.,0.));
#434=DIRECTION('center_axis',(0.,0.,1.));
#435=DIRECTION('ref_axis',(1.,0.,0.));
#436=DIRECTION('center_axis',(0.,0.,1.));
#437=DIRECTION('ref_axis',(1.,0.,0.));
#438=DIRECTION('center_axis',(0.,0.,-1.));
#439=DIRECTION('ref_axis',(1.,0.,0.));
#440=DIRECTION('center_axis',(0.,0.,1.));
#441=DIRECTION('ref_axis',(-0.87639397889876,-0.481594843981952,0.));
#442=DIRECTION('center_axis',(0.,0.,1.));
#443=DIRECTION('ref_axis',(-1.,0.,0.));
#444=DIRECTION('center_axis',(0.,0.,1.));
#445=DIRECTION('ref_axis',(0.87639397889876,-0.481594843981952,0.));
#446=DIRECTION('center_axis',(0.,0.,-1.));
#447=DIRECTION('ref_axis',(1.,0.,0.));
#448=DIRECTION('center_axis',(0.,0.,1.));
#449=DIRECTION('ref_axis',(0.481594843981951,-0.87639397889876,0.));
#450=DIRECTION('center_axis',(0.,0.,1.));
#451=DIRECTION('ref_axis',(-1.,0.,0.));
#452=DIRECTION('center_axis',(0.,0.,1.));
#453=DIRECTION('ref_axis',(0.481594843981951,0.87639397889876,0.));
#454=DIRECTION('center_axis',(0.,0.,-1.));
#455=DIRECTION('ref_axis',(1.,0.,0.));
#456=DIRECTION('center_axis',(0.,0.,1.));
#457=DIRECTION('ref_axis',(0.87639397889876,0.481594843981952,0.));
#458=DIRECTION('center_axis',(0.,0.,1.));
#459=DIRECTION('ref_axis',(-1.,0.,0.));
#460=DIRECTION('center_axis',(0.,0.,1.));
#461=DIRECTION('ref_axis',(-0.87639397889876,0.481594843981952,0.));
#462=DIRECTION('center_axis',(0.,0.,-1.));
#463=DIRECTION('ref_axis',(1.,0.,0.));
#464=DIRECTION('center_axis',(0.,0.,1.));
#465=DIRECTION('ref_axis',(-0.481594843981952,0.87639397889876,0.));
#466=DIRECTION('center_axis',(0.,0.,-1.));
#467=DIRECTION('ref_axis',(-0.481594843981952,0.87639397889876,0.));
#468=DIRECTION('',(0.,0.,1.));
#469=DIRECTION('center_axis',(0.,0.,-1.));
#470=DIRECTION('ref_axis',(-0.481594843981952,0.87639397889876,0.));
#471=DIRECTION('center_axis',(0.,0.,1.));
#472=DIRECTION('ref_axis',(1.,0.,0.));
#473=DIRECTION('',(0.,0.,-1.));
#474=DIRECTION('center_axis',(0.,0.,-1.));
#475=DIRECTION('ref_axis',(1.,0.,0.));
#476=DIRECTION('center_axis',(0.,0.,1.));
#477=DIRECTION('ref_axis',(-0.87639397889876,0.481594843981952,0.));
#478=DIRECTION('center_axis',(0.,0.,-1.));
#479=DIRECTION('ref_axis',(-0.87639397889876,0.481594843981952,0.));
#480=DIRECTION('',(0.,0.,1.));
#481=DIRECTION('center_axis',(0.,0.,-1.));
#482=DIRECTION('ref_axis',(1.83697019872103E-16,-1.,0.));
#483=DIRECTION('',(0.,0.,-1.));
#484=DIRECTION('center_axis',(0.,0.,-1.));
#485=DIRECTION('ref_axis',(-1.,0.,0.));
#486=DIRECTION('center_axis',(0.,0.,-1.));
#487=DIRECTION('ref_axis',(0.87639397889876,0.481594843981952,0.));
#488=DIRECTION('',(0.,0.,1.));
#489=DIRECTION('center_axis',(0.,0.,-1.));
#490=DIRECTION('ref_axis',(0.87639397889876,0.481594843981952,0.));
#491=DIRECTION('center_axis',(0.,0.,1.));
#492=DIRECTION('ref_axis',(1.,0.,0.));
#493=DIRECTION('',(0.,0.,-1.));
#494=DIRECTION('center_axis',(0.,0.,-1.));
#495=DIRECTION('ref_axis',(1.,0.,0.));
#496=DIRECTION('center_axis',(0.,0.,-1.));
#497=DIRECTION('ref_axis',(-0.87639397889876,-0.481594843981952,0.));
#498=DIRECTION('',(0.,0.,1.));
#499=DIRECTION('center_axis',(0.,0.,-1.));
#500=DIRECTION('ref_axis',(-0.87639397889876,-0.481594843981952,0.));
#501=DIRECTION('',(0.,0.,-1.));
#502=DIRECTION('center_axis',(0.,0.,-1.));
#503=DIRECTION('ref_axis',(1.83697019872103E-16,1.,0.));
#504=DIRECTION('center_axis',(0.,0.,-1.));
#505=DIRECTION('ref_axis',(-1.,0.,0.));
#506=DIRECTION('',(0.,0.,1.));
#507=DIRECTION('center_axis',(0.,0.,1.));
#508=DIRECTION('ref_axis',(0.87639397889876,-0.481594843981952,0.));
#509=DIRECTION('center_axis',(0.,0.,-1.));
#510=DIRECTION('ref_axis',(0.87639397889876,-0.481594843981952,0.));
#511=DIRECTION('',(0.,0.,-1.));
#512=DIRECTION('center_axis',(0.,0.,1.));
#513=DIRECTION('ref_axis',(0.481594843981951,0.87639397889876,0.));
#514=DIRECTION('center_axis',(0.,0.,-1.));
#515=DIRECTION('ref_axis',(0.481594843981951,0.87639397889876,0.));
#516=DIRECTION('',(0.,0.,1.));
#517=DIRECTION('center_axis',(0.,0.,-1.));
#518=DIRECTION('ref_axis',(-1.,0.,0.));
#519=DIRECTION('',(0.,0.,-1.));
#520=DIRECTION('center_axis',(0.,0.,-1.));
#521=DIRECTION('ref_axis',(-1.,0.,0.));
#522=DIRECTION('center_axis',(0.,0.,-1.));
#523=DIRECTION('ref_axis',(0.481594843981951,-0.87639397889876,0.));
#524=DIRECTION('',(0.,0.,1.));
#525=DIRECTION('center_axis',(0.,0.,-1.));
#526=DIRECTION('ref_axis',(0.481594843981951,-0.87639397889876,0.));
#527=DIRECTION('center_axis',(0.,0.,1.));
#528=DIRECTION('ref_axis',(1.,0.,0.));
#529=DIRECTION('center_axis',(0.,0.,-1.));
#530=DIRECTION('ref_axis',(1.,0.,0.));
#531=DIRECTION('center_axis',(0.,0.,1.));
#532=DIRECTION('ref_axis',(1.,0.,0.));
#533=DIRECTION('center_axis',(0.,0.,-1.));
#534=DIRECTION('ref_axis',(1.,0.,0.));
#535=DIRECTION('center_axis',(0.,0.,1.));
#536=DIRECTION('ref_axis',(1.,0.,0.));
#537=DIRECTION('center_axis',(0.,0.,1.));
#538=DIRECTION('ref_axis',(1.,0.,0.));
#539=DIRECTION('',(0.,0.,-1.));
#540=DIRECTION('center_axis',(0.,0.,1.));
#541=DIRECTION('ref_axis',(1.,0.,0.));
#542=CARTESIAN_POINT('',(0.,0.,0.));
#543=CARTESIAN_POINT('Origin',(11.15625,4.42019071279735,0.));
#544=CARTESIAN_POINT('',(11.53125,2.45566150710964,10.));
#545=CARTESIAN_POINT('',(9.296875,3.68349226066446,10.));
#546=CARTESIAN_POINT('Origin',(11.15625,4.42019071279735,10.));
#547=CARTESIAN_POINT('',(9.296875,3.68349226066446,0.));
#548=CARTESIAN_POINT('',(9.296875,3.68349226066446,0.));
#549=CARTESIAN_POINT('',(11.53125,2.45566150710964,0.));
#550=CARTESIAN_POINT('Origin',(11.15625,4.42019071279735,0.));
#551=CARTESIAN_POINT('',(11.53125,2.45566150710964,0.));
#552=CARTESIAN_POINT('Origin',(12.,-2.66453525910038E-15,10.));
#553=CARTESIAN_POINT('',(11.53125,-2.45566150710965,0.));
#554=CARTESIAN_POINT('Origin',(12.,-2.66453525910038E-15,0.));
#555=CARTESIAN_POINT('',(11.53125,-2.45566150710965,10.));
#556=CARTESIAN_POINT('',(11.53125,-2.45566150710965,0.));
#557=CARTESIAN_POINT('Origin',(12.,-2.66453525910038E-15,10.));
#558=CARTESIAN_POINT('Origin',(0.,0.,0.));
#559=CARTESIAN_POINT('',(-20.,-2.44929359829471E-15,0.));
#560=CARTESIAN_POINT('Origin',(0.,0.,0.));
#561=CARTESIAN_POINT('',(3.68349226066446,9.296875,0.));
#562=CARTESIAN_POINT('Origin',(0.,0.,0.));
#563=CARTESIAN_POINT('',(2.45566150710964,11.53125,0.));
#564=CARTESIAN_POINT('Origin',(4.42019071279735,11.15625,0.));
#565=CARTESIAN_POINT('',(-2.45566150710964,11.53125,0.));
#566=CARTESIAN_POINT('Origin',(0.,12.,0.));
#567=CARTESIAN_POINT('',(-3.68349226066446,9.296875,0.));
#568=CARTESIAN_POINT('Origin',(-4.42019071279735,11.15625,0.));
#569=CARTESIAN_POINT('',(-9.296875,3.68349226066446,0.));
#570=CARTESIAN_POINT('Origin',(0.,0.,0.));
#571=CARTESIAN_POINT('',(-11.53125,2.45566150710964,0.));
#572=CARTESIAN_POINT('Origin',(-11.15625,4.42019071279735,0.));
#573=CARTESIAN_POINT('',(-11.53125,-2.45566150710964,0.));
#574=CARTESIAN_POINT('Origin',(-12.,-2.66453525910038E-15,0.));
#575=CARTESIAN_POINT('',(-9.296875,-3.68349226066446,0.));
#576=CARTESIAN_POINT('Origin',(-11.15625,-4.42019071279736,0.));
#577=CARTESIAN_POINT('',(-3.68349226066446,-9.296875,0.));
#578=CARTESIAN_POINT('Origin',(0.,0.,0.));
#579=CARTESIAN_POINT('',(-2.45566150710964,-11.53125,0.));
#580=CARTESIAN_POINT('Origin',(-4.42019071279735,-11.15625,0.));
#581=CARTESIAN_POINT('',(2.45566150710964,-11.53125,0.));
#582=CARTESIAN_POINT('Origin',(-1.46957615897682E-15,-12.,0.));
#583=CARTESIAN_POINT('',(3.68349226066446,-9.296875,0.));
#584=CARTESIAN_POINT('Origin',(4.42019071279735,-11.15625,0.));
#585=CARTESIAN_POINT('',(9.296875,-3.68349226066446,0.));
#586=CARTESIAN_POINT('Origin',(0.,0.,0.));
#587=CARTESIAN_POINT('Origin',(11.15625,-4.42019071279736,0.));
#588=CARTESIAN_POINT('Origin',(11.15625,-4.42019071279736,0.));
#589=CARTESIAN_POINT('',(9.296875,-3.68349226066446,10.));
#590=CARTESIAN_POINT('',(9.296875,-3.68349226066446,0.));
#591=CARTESIAN_POINT('Origin',(11.15625,-4.42019071279736,10.));
#592=CARTESIAN_POINT('Origin',(0.,0.,0.));
#593=CARTESIAN_POINT('',(3.68349226066446,-9.296875,10.));
#594=CARTESIAN_POINT('',(3.68349226066446,-9.296875,0.));
#595=CARTESIAN_POINT('Origin',(0.,0.,10.));
#596=CARTESIAN_POINT('Origin',(4.42019071279735,-11.15625,0.));
#597=CARTESIAN_POINT('',(2.45566150710964,-11.53125,10.));
#598=CARTESIAN_POINT('Origin',(4.42019071279735,-11.15625,10.));
#599=CARTESIAN_POINT('',(2.45566150710964,-11.53125,0.));
#600=CARTESIAN_POINT('Origin',(-1.46957615897682E-15,-12.,10.));
#601=CARTESIAN_POINT('',(-2.45566150710964,-11.53125,10.));
#602=CARTESIAN_POINT('',(-2.45566150710964,-11.53125,0.));
#603=CARTESIAN_POINT('Origin',(-1.46957615897682E-15,-12.,10.));
#604=CARTESIAN_POINT('Origin',(-4.42019071279735,-11.15625,0.));
#605=CARTESIAN_POINT('',(-3.68349226066446,-9.296875,10.));
#606=CARTESIAN_POINT('',(-3.68349226066446,-9.296875,0.));
#607=CARTESIAN_POINT('Origin',(-4.42019071279735,-11.15625,10.));
#608=CARTESIAN_POINT('Origin',(0.,0.,0.));
#609=CARTESIAN_POINT('',(-9.296875,-3.68349226066446,10.));
#610=CARTESIAN_POINT('',(-9.296875,-3.68349226066446,0.));
#611=CARTESIAN_POINT('Origin',(0.,0.,10.));
#612=CARTESIAN_POINT('Origin',(4.42019071279735,11.15625,0.));
#613=CARTESIAN_POINT('',(3.68349226066446,9.296875,10.));
#614=CARTESIAN_POINT('',(3.68349226066446,9.296875,0.));
#615=CARTESIAN_POINT('',(2.45566150710964,11.53125,10.));
#616=CARTESIAN_POINT('Origin',(4.42019071279735,11.15625,10.));
#617=CARTESIAN_POINT('',(2.45566150710964,11.53125,0.));
#618=CARTESIAN_POINT('Origin',(0.,12.,10.));
#619=CARTESIAN_POINT('',(-2.45566150710964,11.53125,10.));
#620=CARTESIAN_POINT('Origin',(0.,12.,10.));
#621=CARTESIAN_POINT('',(-2.45566150710964,11.53125,0.));
#622=CARTESIAN_POINT('Origin',(-4.42019071279735,11.15625,0.));
#623=CARTESIAN_POINT('',(-3.68349226066446,9.296875,10.));
#624=CARTESIAN_POINT('Origin',(-4.42019071279735,11.15625,10.));
#625=CARTESIAN_POINT('',(-3.68349226066446,9.296875,0.));
#626=CARTESIAN_POINT('Origin',(-11.15625,-4.42019071279736,0.));
#627=CARTESIAN_POINT('',(-11.53125,-2.45566150710964,10.));
#628=CARTESIAN_POINT('Origin',(-11.15625,-4.42019071279736,10.));
#629=CARTESIAN_POINT('',(-11.53125,-2.45566150710964,0.));
#630=CARTESIAN_POINT('Origin',(-12.,-2.66453525910038E-15,10.));
#631=CARTESIAN_POINT('',(-11.53125,2.45566150710964,10.));
#632=CARTESIAN_POINT('',(-11.53125,2.45566150710964,0.));
#633=CARTESIAN_POINT('Origin',(-12.,-2.66453525910038E-15,10.));
#634=CARTESIAN_POINT('Origin',(-11.15625,4.42019071279735,0.));
#635=CARTESIAN_POINT('',(-9.296875,3.68349226066446,10.));
#636=CARTESIAN_POINT('',(-9.296875,3.68349226066446,0.));
#637=CARTESIAN_POINT('Origin',(-11.15625,4.42019071279735,10.));
#638=CARTESIAN_POINT('Origin',(0.,0.,0.));
#639=CARTESIAN_POINT('Origin',(0.,0.,10.));
#640=CARTESIAN_POINT('Origin',(0.,0.,0.));
#641=CARTESIAN_POINT('Origin',(0.,0.,10.));
#642=CARTESIAN_POINT('Origin',(0.,0.,0.));
#643=CARTESIAN_POINT('',(-20.,-2.44929359829471E-15,10.));
#644=CARTESIAN_POINT('Origin',(0.,0.,10.));
#645=CARTESIAN_POINT('',(-20.,-2.44929359829471E-15,0.));
#646=CARTESIAN_POINT('Origin',(0.,0.,10.));
#647=UNCERTAINTY_MEASURE_WITH_UNIT(LENGTH_MEASURE(0.01),#651,
'DISTANCE_ACCURACY_VALUE',
'Maximum model space distance between geometric entities at asserted c
onnectivities');
#648=UNCERTAINTY_MEASURE_WITH_UNIT(LENGTH_MEASURE(0.01),#651,
'DISTANCE_ACCURACY_VALUE',
'Maximum model space distance between geometric entities at asserted c
onnectivities');
#649=(
GEOMETRIC_REPRESENTATION_CONTEXT(3)
GLOBAL_UNCERTAINTY_ASSIGNED_CONTEXT((#647))
GLOBAL_UNIT_ASSIGNED_CONTEXT((#651,#653,#654))
REPRESENTATION_CONTEXT('','3D')
);
#650=(
GEOMETRIC_REPRESENTATION_CONTEXT(3)
GLOBAL_UNCERTAINTY_ASSIGNED_CONTEXT((#648))
GLOBAL_UNIT_ASSIGNED_CONTEXT((#651,#653,#654))
REPRESENTATION_CONTEXT('','3D')
);
#651=(
LENGTH_UNIT()
NAMED_UNIT(*)
SI_UNIT(.MILLI.,.METRE.)
);
#652=(
LENGTH_UNIT()
NAMED_UNIT(*)
SI_UNIT($,.METRE.)
);
#653=(
NAMED_UNIT(*)
PLANE_ANGLE_UNIT()
SI_UNIT($,.RADIAN.)
);
#654=(
NAMED_UNIT(*)
SI_UNIT($,.STERADIAN.)
SOLID_ANGLE_UNIT()
);
#655=SHAPE_DEFINITION_REPRESENTATION(#656,#657);
#656=PRODUCT_DEFINITION_SHAPE('',$,#659);
#657=SHAPE_REPRESENTATION('',(#363),#649);
#658=PRODUCT_DEFINITION_CONTEXT('part definition',#663,'design');
#659=PRODUCT_DEFINITION('2026-07-24-17-26-33-057','practice washer',#660,
#658);
#660=PRODUCT_DEFINITION_FORMATION('',$,#665);
#661=PRODUCT_RELATED_PRODUCT_CATEGORY('practice washer',
'practice washer',(#665));
#662=APPLICATION_PROTOCOL_DEFINITION('international standard',
'automotive_design',2009,#663);
#663=APPLICATION_CONTEXT(
'Core Data for Automotive Mechanical Design Process');
#664=PRODUCT_CONTEXT('part definition',#663,'mechanical');
#665=PRODUCT('2026-07-24-17-26-33-057','practice washer',$,(#664));
#666=PRESENTATION_STYLE_ASSIGNMENT((#667));
#667=SURFACE_STYLE_USAGE(.BOTH.,#668);
#668=SURFACE_SIDE_STYLE('',(#669));
#669=SURFACE_STYLE_FILL_AREA(#670);
#670=FILL_AREA_STYLE('Steel - Satin',(#671));
#671=FILL_AREA_STYLE_COLOUR('Steel - Satin',#672);
#672=COLOUR_RGB('Steel - Satin',0.627450980392157,0.627450980392157,0.627450980392157);
ENDSEC;
END-ISO-10303-21;
